<?xml version="1.0" encoding="iso-8859-1"?>
<!-- Uploaded to: SVG Repo, www.svgrepo.com, Generator: SVG Repo Mixer Tools -->
<!DOCTYPE svg PUBLIC "-//W3C//DTD SVG 1.1//EN" "http://www.w3.org/Graphics/SVG/1.1/DTD/svg11.dtd">
<svg fill="#ffffff" height="800px" width="800px" version="1.1" id="Capa_1" xmlns="http://www.w3.org/2000/svg" xmlns:xlink="http://www.w3.org/1999/xlink"
	 viewBox="0 0 409.504 409.504" xml:space="preserve">
<g>
	<path d="M236.799,200.85l-12.643-7.259v-14.554c0-1.581-0.83-3.047-2.187-3.86c-1.357-0.814-3.041-0.854-4.436-0.108l-12.783,6.834
		l-12.782-6.834c-1.395-0.744-3.078-0.705-4.436,0.108c-1.357,0.813-2.187,2.279-2.187,3.86v14.554l-12.643,7.259l0.005,0.018
		c-0.669,0.384-1.256,0.927-1.668,1.644c-1.236,2.156-0.492,4.906,1.663,6.144l12.643,7.255v14.555c0,1.581,0.83,3.047,2.187,3.86
		c0.711,0.426,1.512,0.64,2.313,0.64c0.729,0,1.458-0.177,2.122-0.531l12.782-6.834l12.783,6.834
		c0.664,0.355,1.394,0.531,2.122,0.531c0.802,0,1.602-0.214,2.313-0.64c1.356-0.813,2.187-2.279,2.187-3.86V215.91l12.623-7.244
		l0.002-0.001l0.018-0.01l-0.001-0.001c0.67-0.384,1.251-0.944,1.663-1.662C239.699,204.837,238.955,202.087,236.799,200.85z
		 M217.417,209.401c-1.397,0.803-2.26,2.291-2.26,3.903v9.651l-8.283-4.429c-1.377-0.735-2.963-0.682-4.243,0.002l-0.001-0.002
		l-8.282,4.429v-9.651c0-1.612-0.862-3.101-2.26-3.903l-8.104-4.65l8.104-4.652c1.397-0.802,2.26-2.291,2.26-3.902v-9.65
		l8.282,4.429l0.001-0.002c1.28,0.682,2.866,0.734,4.243,0.002l8.283-4.429v9.65c0,1.611,0.862,3.101,2.26,3.902l8.104,4.652
		L217.417,209.401z"/>
	<path d="M381.146,299.694l-23.374-13.261l18.12-10.933c2.128-1.283,2.812-4.05,1.527-6.178c-1.283-2.127-4.049-2.811-6.178-1.527
		l-22.447,13.544l-24.61-13.962l46.537-28.328c2.123-1.292,2.796-4.061,1.504-6.184c-1.292-2.124-4.062-2.795-6.184-1.504
		l-50.816,30.933l-24.712-14.02l18.051-10.988c2.123-1.292,2.796-4.061,1.504-6.184c-1.292-2.124-4.061-2.796-6.184-1.504
		l-22.329,13.594l-29.671-16.833l30.851-17.705c2.155-1.237,2.899-3.987,1.663-6.144c-0.411-0.717-0.999-1.261-1.668-1.645
		l0.005-0.018l-30.773-17.663l29.755-16.881l22.331,13.596c0.73,0.445,1.538,0.657,2.336,0.657c1.518,0,3-0.77,3.848-2.161
		c1.292-2.122,0.619-4.891-1.504-6.184l-18.052-10.99l24.709-14.019l50.82,30.932c0.732,0.445,1.538,0.657,2.336,0.657
		c1.519,0,3.001-0.77,3.848-2.161c1.292-2.123,0.619-4.892-1.504-6.184l-46.541-28.327l24.712-14.02l22.335,13.594
		c0.731,0.445,1.538,0.657,2.336,0.657c1.519,0,3.001-0.77,3.848-2.161c1.292-2.123,0.619-4.892-1.504-6.184l-18.055-10.989
		l23.131-13.123c2.161-1.227,2.92-3.973,1.693-6.135c-1.227-2.161-3.974-2.918-6.135-1.693l-23.069,13.088V94.094
		c0-2.485-2.015-4.5-4.5-4.5c-2.485,0-4.5,2.015-4.5,4.5v26.168l-24.67,13.996V79.851c0-2.485-2.015-4.5-4.5-4.5
		c-2.485,0-4.5,2.015-4.5,4.5v59.514l-24.671,13.997v-21.063c0-2.485-2.015-4.5-4.5-4.5c-2.485,0-4.5,2.015-4.5,4.5v26.168
		l-30.17,17.115v-36.171c0-1.581-0.83-3.047-2.187-3.86c-1.357-0.813-3.041-0.854-4.436-0.108l-31.251,16.708v-33.146l22.844-12.717
		c2.172-1.209,2.952-3.949,1.743-6.12c-1.21-2.172-3.951-2.954-6.12-1.743l-18.467,10.279V80.291l51.982-28.934
		c2.172-1.208,2.952-3.948,1.743-6.12c-1.208-2.172-3.95-2.953-6.12-1.743l-47.604,26.498V41.58l22.844-12.716
		c2.172-1.209,2.952-3.949,1.743-6.12c-1.21-2.172-3.951-2.954-6.12-1.743l-18.467,10.28V4.5c0-2.485-2.015-4.5-4.5-4.5
		c-2.485,0-4.5,2.015-4.5,4.5v26.78l-18.466-10.279c-2.168-1.208-4.91-0.429-6.12,1.743c-1.209,2.171-0.429,4.911,1.743,6.12
		l22.843,12.716v28.412l-47.604-26.498c-2.172-1.208-4.912-0.429-6.12,1.743c-1.209,2.171-0.429,4.912,1.743,6.12l51.98,28.934
		v28.412l-18.466-10.279c-2.168-1.208-4.91-0.429-6.12,1.743c-1.209,2.171-0.429,4.911,1.743,6.12l22.843,12.716v33.147
		l-31.25-16.708c-1.395-0.744-3.079-0.705-4.436,0.108c-1.356,0.814-2.186,2.279-2.186,3.86v36.171l-30.17-17.116v-26.167
		c0-2.485-2.015-4.5-4.5-4.5c-2.485,0-4.5,2.015-4.5,4.5v21.061l-24.672-13.996V79.851c0-2.485-2.015-4.5-4.5-4.5
		c-2.485,0-4.5,2.015-4.5,4.5v54.406L64.866,120.26V94.094c0-2.485-2.015-4.5-4.5-4.5c-2.485,0-4.5,2.015-4.5,4.5v21.06
		l-23.066-13.086c-2.159-1.225-4.908-0.468-6.135,1.693c-1.227,2.162-0.468,4.908,1.693,6.135l23.13,13.122l-18.054,10.99
		c-2.123,1.292-2.796,4.061-1.504,6.184c0.848,1.393,2.329,2.161,3.848,2.161c0.798,0,1.606-0.212,2.336-0.657l22.333-13.595
		l24.714,14.02L38.62,170.449c-2.123,1.292-2.796,4.061-1.504,6.184c0.847,1.392,2.329,2.161,3.848,2.161
		c0.798,0,1.604-0.212,2.336-0.657l50.82-30.933l24.71,14.019l-18.053,10.991c-2.123,1.293-2.796,4.062-1.504,6.184
		c0.848,1.393,2.329,2.161,3.848,2.161c0.798,0,1.605-0.212,2.336-0.657l22.332-13.597l29.755,16.881l-30.775,17.663l0.01,0.017
		c-0.671,0.383-1.26,0.928-1.673,1.646c-1.236,2.156-0.492,4.906,1.663,6.144l30.854,17.706l-29.672,16.834L105.617,229.6
		c-2.12-1.292-4.891-0.619-6.184,1.504c-1.292,2.123-0.619,4.892,1.504,6.184l18.054,10.99L94.28,262.296l-50.818-30.934
		c-2.12-1.291-4.891-0.618-6.184,1.504c-1.292,2.123-0.619,4.892,1.504,6.184l46.539,28.329l-24.713,14.02l-22.332-13.594
		c-2.12-1.292-4.891-0.619-6.184,1.504c-1.292,2.123-0.619,4.892,1.504,6.184l18.053,10.989l-23.291,13.213
		c-2.161,1.227-2.92,3.973-1.693,6.135c0.829,1.46,2.351,2.28,3.918,2.28c0.753,0,1.516-0.189,2.217-0.587l23.23-13.179v21.064
		c0,2.485,2.015,4.5,4.5,4.5c2.485,0,4.5-2.015,4.5-4.5v-26.17L89.7,275.242v54.408c0,2.485,2.015,4.5,4.5,4.5
		c2.485,0,4.5-2.015,4.5-4.5v-59.514l24.669-13.995v21.062c0,2.485,2.015,4.5,4.5,4.5c2.485,0,4.5-2.015,4.5-4.5v-26.168
		l30.011-17.025v36.08c0,1.581,0.83,3.047,2.186,3.859c0.711,0.427,1.512,0.641,2.314,0.641c0.729,0,1.458-0.177,2.121-0.531
		l31.251-16.706v33.333L177.409,303.4c-2.172,1.209-2.952,3.949-1.743,6.12c0.823,1.479,2.355,2.313,3.936,2.313
		c0.74,0,1.492-0.184,2.185-0.569l18.466-10.279v28.412l-51.98,28.938c-2.172,1.209-2.952,3.949-1.743,6.12
		c0.823,1.479,2.355,2.313,3.936,2.313c0.741,0,1.492-0.184,2.185-0.569l47.604-26.501v28.412l-22.843,12.716
		c-2.172,1.209-2.952,3.949-1.743,6.12c0.823,1.479,2.355,2.313,3.936,2.313c0.741,0,1.492-0.184,2.185-0.569l18.466-10.279v26.596
		c0,2.485,2.015,4.5,4.5,4.5c2.485,0,4.5-2.015,4.5-4.5v-26.596l18.467,10.279c0.692,0.386,1.443,0.569,2.185,0.569
		c1.58,0,3.112-0.834,3.936-2.313c1.209-2.171,0.429-4.911-1.743-6.12l-22.844-12.717v-28.411l47.604,26.501
		c0.692,0.386,1.443,0.569,2.185,0.569c1.58,0,3.112-0.834,3.936-2.313c1.209-2.171,0.429-4.911-1.743-6.12l-51.982-28.938v-28.412
		l18.467,10.279c0.693,0.386,1.443,0.569,2.185,0.569c1.58,0,3.113-0.834,3.936-2.313c1.209-2.172,0.429-4.912-1.743-6.12
		l-22.844-12.715v-33.333l31.252,16.706c0.663,0.354,1.393,0.531,2.121,0.531c0.802,0,1.602-0.214,2.313-0.641
		c1.356-0.813,2.187-2.278,2.187-3.859v-36.082l30.008,17.024v26.171c0,2.485,2.015,4.5,4.5,4.5c2.485,0,4.5-2.015,4.5-4.5v-21.064
		l24.671,13.996v59.516c0,2.485,2.015,4.5,4.5,4.5c2.485,0,4.5-2.015,4.5-4.5v-54.41l24.561,13.935v26.233
		c0,2.485,2.015,4.5,4.5,4.5c2.485,0,4.5-2.015,4.5-4.5V294.28l23.341,13.242c0.701,0.398,1.464,0.587,2.217,0.587
		c1.566,0,3.09-0.82,3.918-2.28C384.066,303.667,383.307,300.921,381.146,299.694z M240.384,222.583
		c-1.397,0.803-2.26,2.291-2.26,3.903v36.096l-31.252-16.706c-1.374-0.735-2.96-0.682-4.241,0.002l-0.001-0.002l-31.251,16.706
		v-36.096c0-1.612-0.862-3.101-2.26-3.903l-31.07-17.831l31.07-17.833c1.397-0.803,2.26-2.292,2.26-3.903V146.92l31.25,16.708
		l0.001-0.003c1.28,0.683,2.866,0.736,4.243,0.003l31.251-16.708v36.096c0,1.611,0.862,3.101,2.26,3.902l31.07,17.833
		L240.384,222.583z"/>
</g>
</svg>
